G04 ================== begin FILE IDENTIFICATION RECORD ==================*
G04 Layout Name:  PATTERNDESIGN01.brd*
G04 Film Name:    TOP*
G04 File Format:  Gerber RS274X*
G04 File Origin:  Cadence Allegro 17.2-P019*
G04 Origin Date:  Tue Oct 08 17:16:08 2024*
G04 *
G04 Layer:  BOARD GEOMETRY/DESIGN_OUTLINE*
G04 Layer:  ETCH/TOP*
G04 Layer:  PIN/TOP*
G04 Layer:  VIA CLASS/TOP*
G04 *
G04 Offset:    (0.000 0.000)*
G04 Mirror:    No*
G04 Mode:      Positive*
G04 Rotation:  0*
G04 FullContactRelief:  No*
G04 UndefLineWidth:     0.000*
G04 ================== end FILE IDENTIFICATION RECORD ====================*
%FSLAX25Y25*MOMM*%
%IR0*IPPOS*OFA0.00000B0.00000*MIA0B0*SFA1.00000B1.00000*%
%ADD11C,1.524*%
%ADD14C,1.651*%
%ADD15R,1.524X1.524*%
%ADD13O,1.524X1.016*%
%ADD12R,1.524X1.016*%
%ADD10C,.635*%
%ADD16C,1.*%
%ADD17C,.5*%
G75*
%LPD*%
G75*
G54D10*
X500000Y500000D03*
Y4500000D03*
X4500000Y500000D03*
Y4500000D03*
G54D11*
X1016000Y1270000D03*
Y1524000D03*
Y1778000D03*
X762000Y3302000D03*
Y3556000D03*
X2540000Y1270000D03*
Y1524000D03*
Y1778000D03*
X3302000Y1270000D03*
Y1524000D03*
Y1778000D03*
Y2032000D03*
X4064000Y1524000D03*
Y2540000D03*
Y3556000D03*
G54D12*
X1854200Y1854200D03*
G54D13*
Y1727200D03*
Y1600200D03*
G54D14*
X1549400Y3048000D03*
X2540000D03*
X2032000Y4064000D03*
X3048000Y3048000D03*
G54D15*
X1549400Y4064000D03*
X2540000Y2032000D03*
X2032000Y3048000D03*
X2540000Y4064000D03*
X3048000D03*
G54D16*
G01X3302000Y1778000D02*
X3163000D01*
X3022600Y1637600D01*
Y1168400D01*
X2844800Y990600D01*
X990600D01*
X812800Y1168400D01*
Y1574800D01*
X1016000Y1778000D01*
G01Y1270000D02*
X2540000D01*
G54D17*
G01X762000Y3302000D02*
X1778000D01*
X2540000Y4064000D01*
G01X1549400D02*
X965200D01*
X762000Y3860800D01*
Y3556000D01*
G01X1854200Y1727200D02*
X2159000D01*
X2209800Y1676400D01*
X2438400D01*
X2540000Y1778000D01*
G01Y3048000D02*
Y2692400D01*
X2387600Y2540000D01*
X1981200D01*
X1854200Y2413000D01*
Y1854200D01*
G01X1549400Y3048000D02*
X2032000D01*
G01X3048000Y4064000D02*
X2870200Y4241800D01*
X1727200D01*
X1549400Y4064000D01*
G01X3048000Y3048000D02*
X2895600D01*
X2768600Y2921000D01*
Y2006600D01*
X2540000Y1778000D01*
G01X3302000Y1524000D02*
X3556000D01*
X3708400Y1676400D01*
Y2387600D01*
X3860800Y2540000D01*
X4064000D01*
G01Y3556000D02*
Y3911600D01*
X3911600Y4064000D01*
X3048000D01*
M02*
